<?xml version="1.0" encoding="utf-8"?>
<!-- Generator: Adobe Illustrator 14.0.0, SVG Export Plug-In . SVG Version: 6.00 Build 43363)  -->
<!DOCTYPE svg PUBLIC "-//W3C//DTD SVG 1.1//EN" "http://www.w3.org/Graphics/SVG/1.1/DTD/svg11.dtd">
<svg version="1.1" id="Layer_1" xmlns="http://www.w3.org/2000/svg" xmlns:xlink="http://www.w3.org/1999/xlink" x="0px" y="0px"
	 width="50px" height="50px" viewBox="0 0 50 50" enable-background="new 0 0 50 50" xml:space="preserve">
<g>
	<path fill="#F7BE3E" stroke="#BB8954" stroke-width="3" d="M46.631,21.796c0,7.74,0.379,15.96-7.357,15.96H14.165
		c-7.739,0-7.148-7.098-7.148-14.834V18.64c0-7.74-0.589-14.309,7.148-14.309h25.108c7.738,0,7.356,5.445,7.356,13.186
		L46.631,21.796L46.631,21.796z"/>
	
		<linearGradient id="SVGID_1_" gradientUnits="userSpaceOnUse" x1="956.1895" y1="-1007.9844" x2="995.1348" y2="-1007.9844" gradientTransform="matrix(1 0 0 -1 -948.5 -993)">
		<stop  offset="0" style="stop-color:#F3922C"/>
		<stop  offset="1" style="stop-color:#BB8954"/>
	</linearGradient>
	<rect x="7.689" y="13.828" fill="url(#SVGID_1_)" width="38.946" height="2.313"/>
</g>
<path fill="#D9D9D8" d="M40.715,29.837c0,7.677,0.374,15.832-7.298,15.832H8.509c-7.678,0-7.091-7.041-7.091-14.716v-4.25
	c0-7.677-0.586-14.194,7.091-14.194h24.908c7.672,0,7.298,5.401,7.298,13.079V29.837z"/>
<g>
	<path fill="#F7BE3E" stroke="#BB8954" stroke-width="3" d="M40.99,28.352c0,7.74,0.379,15.959-7.359,15.959H8.524
		c-7.738,0-7.148-7.098-7.148-14.834v-4.283c0-7.738-0.59-14.309,7.148-14.309h25.108c7.738,0,7.359,5.446,7.359,13.185
		L40.99,28.352L40.99,28.352z"/>
	
		<linearGradient id="SVGID_2_" gradientUnits="userSpaceOnUse" x1="950.5479" y1="-1014.5391" x2="989.4941" y2="-1014.5391" gradientTransform="matrix(1 0 0 -1 -948.5 -993)">
		<stop  offset="0" style="stop-color:#F3922C"/>
		<stop  offset="1" style="stop-color:#BB8954"/>
	</linearGradient>
	<rect x="2.048" y="20.383" fill="url(#SVGID_2_)" width="38.946" height="2.312"/>
	<rect x="8.242" y="15.073" width="26.29" height="1.927"/>
</g>
</svg>
