<?xml version="1.0" encoding="utf-8"?>
<!-- Generator: Adobe Illustrator 14.0.0, SVG Export Plug-In . SVG Version: 6.00 Build 43363)  -->
<!DOCTYPE svg PUBLIC "-//W3C//DTD SVG 1.1//EN" "http://www.w3.org/Graphics/SVG/1.1/DTD/svg11.dtd">
<svg version="1.1" id="Layer_1" xmlns="http://www.w3.org/2000/svg" xmlns:xlink="http://www.w3.org/1999/xlink" x="0px" y="0px"
	 width="50px" height="50px" viewBox="0 0 50 50" enable-background="new 0 0 50 50" xml:space="preserve">
<path fill="#D9D9D8" d="M46.637,26.982c0,8.814,0.432,18.176-8.379,18.176H9.664c-8.812,0-8.143-8.083-8.143-16.891v-4.88
	c0-8.813-0.67-16.295,8.143-16.295h28.594c8.812,0,8.381,6.201,8.381,15.014v4.875h-0.002V26.982z"/>
<path fill="#F7BE3E" stroke="#BB8954" stroke-width="3" d="M46.637,25.639c0,8.812,0.432,18.174-8.382,18.174H9.663
	c-8.812,0-8.143-8.08-8.143-16.892v-4.878c0-8.813-0.671-16.295,8.143-16.295h28.595c8.811,0,8.379,6.201,8.379,15.015V25.639
	L46.637,25.639z"/>
<linearGradient id="SVGID_1_" gradientUnits="userSpaceOnUse" x1="950.7871" y1="-1010.8809" x2="995.1406" y2="-1010.8809" gradientTransform="matrix(1 0 0 -1 -948.5 -993)">
	<stop  offset="0" style="stop-color:#F3922C"/>
	<stop  offset="1" style="stop-color:#BB8954"/>
</linearGradient>
<rect x="2.287" y="16.564" fill="url(#SVGID_1_)" width="44.354" height="2.634"/>
<rect x="9.34" y="10.517" width="29.939" height="2.194"/>
</svg>
