<?xml version="1.0" encoding="utf-8"?>
<!-- Generator: Adobe Illustrator 14.0.0, SVG Export Plug-In . SVG Version: 6.00 Build 43363)  -->
<!DOCTYPE svg PUBLIC "-//W3C//DTD SVG 1.1//EN" "http://www.w3.org/Graphics/SVG/1.1/DTD/svg11.dtd">
<svg version="1.1" id="Layer_1" xmlns="http://www.w3.org/2000/svg" xmlns:xlink="http://www.w3.org/1999/xlink" x="0px" y="0px"
	 width="50px" height="50px" viewBox="0 0 50 50" enable-background="new 0 0 50 50" xml:space="preserve">
<rect x="1.613" y="40.619" fill="#A0A0A0" width="45.262" height="0.798"/>
<linearGradient id="SVGID_1_" gradientUnits="userSpaceOnUse" x1="691.6074" y1="711.7422" x2="691.6074" y2="680.0422" gradientTransform="matrix(1 0 0 1 -667.5 -672)">
	<stop  offset="0" style="stop-color:#8CD3DA"/>
	<stop  offset="1" style="stop-color:#24FFFF"/>
</linearGradient>
<path fill="url(#SVGID_1_)" stroke="#2C68A7" stroke-width="3" d="M1.613,7.062c5.952,0,10.996,2.426,10.498,18.882
	C11.743,38.065,7.596,39.356,1.886,40.16v0.061h44.705v-1.058v-0.366V14.569h0.011V7.061L1.613,7.062L1.613,7.062z"/>
<linearGradient id="SVGID_2_" gradientUnits="userSpaceOnUse" x1="692.0176" y1="711.7422" x2="692.0176" y2="680.0432" gradientTransform="matrix(1 0 0 1 -667.5 -672)">
	<stop  offset="0" style="stop-color:#FFFFFF;stop-opacity:0"/>
	<stop  offset="1" style="stop-color:#FFFFFF"/>
</linearGradient>
<path opacity="0.3" fill="url(#SVGID_2_)" enable-background="new    " d="M2.629,7.062c5.531,1.275,10.254,2.426,9.756,18.881
	C12.017,38.065,7.871,39.356,2.161,40.16v0.061h44.704v-1.058v-0.366V14.569h0.01V7.061L2.629,7.062L2.629,7.062z"/>
<line fill="none" stroke="#2C68A7" stroke-width="3" x1="11.114" y1="16.396" x2="46.591" y2="16.396"/>
<rect x="15.547" y="10.826" fill="#47423B" width="19.01" height="1.97"/>
<rect x="15.547" y="20.721" fill="#47423B" width="27.93" height="1.971"/>
<rect x="15.547" y="27.582" fill="#47423B" width="20.965" height="1.972"/>
<rect x="15.547" y="34.703" fill="#47423B" width="20.965" height="1.468"/>
</svg>
